<?xml version="1.0" encoding="UTF-8"?>
<!-- Do not edit this file with editors other than draw.io -->
<!DOCTYPE svg PUBLIC "-//W3C//DTD SVG 1.1//EN" "http://www.w3.org/Graphics/SVG/1.1/DTD/svg11.dtd">
<svg xmlns="http://www.w3.org/2000/svg" style="background: transparent; background-color: transparent; color-scheme: light dark;" xmlns:xlink="http://www.w3.org/1999/xlink" version="1.1" width="510px" height="461px" viewBox="0 0 510 461" content="&lt;mxfile host=&quot;app.diagrams.net&quot; agent=&quot;Mozilla/5.0 (Macintosh; Intel Mac OS X 10_15_7) AppleWebKit/537.36 (KHTML, like Gecko) Chrome/144.0.0.0 Safari/537.36&quot; version=&quot;29.3.7&quot; scale=&quot;1&quot; border=&quot;0&quot;&gt;&#10;  &lt;diagram name=&quot;Página-1&quot; id=&quot;IPRJgoOkZfq6k9q03qQ5&quot;&gt;&#10;    &lt;mxGraphModel dx=&quot;1720&quot; dy=&quot;1065&quot; grid=&quot;1&quot; gridSize=&quot;10&quot; guides=&quot;1&quot; tooltips=&quot;1&quot; connect=&quot;1&quot; arrows=&quot;1&quot; fold=&quot;1&quot; page=&quot;1&quot; pageScale=&quot;1&quot; pageWidth=&quot;1169&quot; pageHeight=&quot;827&quot; math=&quot;0&quot; shadow=&quot;0&quot;&gt;&#10;      &lt;root&gt;&#10;        &lt;mxCell id=&quot;0&quot; /&gt;&#10;        &lt;mxCell id=&quot;1&quot; parent=&quot;0&quot; /&gt;&#10;        &lt;mxCell id=&quot;2&quot; connectable=&quot;0&quot; parent=&quot;1&quot; style=&quot;group;arcSize=20;&quot; value=&quot;&quot; vertex=&quot;1&quot;&gt;&#10;          &lt;mxGeometry height=&quot;460&quot; width=&quot;510&quot; x=&quot;1498&quot; y=&quot;40&quot; as=&quot;geometry&quot; /&gt;&#10;        &lt;/mxCell&gt;&#10;        &lt;mxCell id=&quot;3&quot; parent=&quot;2&quot; style=&quot;shape=hexagon;perimeter=hexagonPerimeter2;whiteSpace=wrap;html=1;fixedSize=1;rotation=-90;fillColor=#38B6FF;strokeColor=none;perimeterSpacing=0;rounded=1;arcSize=20;container=0;&quot; value=&quot;&quot; vertex=&quot;1&quot;&gt;&#10;          &lt;mxGeometry height=&quot;80&quot; width=&quot;90&quot; x=&quot;124&quot; y=&quot;153&quot; as=&quot;geometry&quot; /&gt;&#10;        &lt;/mxCell&gt;&#10;        &lt;mxCell id=&quot;4&quot; parent=&quot;2&quot; style=&quot;shape=hexagon;perimeter=hexagonPerimeter2;whiteSpace=wrap;html=1;fixedSize=1;rotation=-90;fillColor=#004AAD;strokeColor=none;perimeterSpacing=0;rounded=1;arcSize=20;container=0;&quot; value=&quot;&quot; vertex=&quot;1&quot;&gt;&#10;          &lt;mxGeometry height=&quot;80&quot; width=&quot;90&quot; x=&quot;210&quot; y=&quot;5&quot; as=&quot;geometry&quot; /&gt;&#10;        &lt;/mxCell&gt;&#10;        &lt;mxCell id=&quot;5&quot; parent=&quot;2&quot; style=&quot;shape=hexagon;perimeter=hexagonPerimeter2;whiteSpace=wrap;html=1;fixedSize=1;rotation=-90;fillColor=#004AAD;strokeColor=none;perimeterSpacing=0;rounded=1;arcSize=20;container=0;&quot; value=&quot;&quot; vertex=&quot;1&quot;&gt;&#10;          &lt;mxGeometry height=&quot;80&quot; width=&quot;90&quot; x=&quot;167&quot; y=&quot;79&quot; as=&quot;geometry&quot; /&gt;&#10;        &lt;/mxCell&gt;&#10;        &lt;mxCell id=&quot;6&quot; parent=&quot;2&quot; style=&quot;shape=hexagon;perimeter=hexagonPerimeter2;whiteSpace=wrap;html=1;fixedSize=1;rotation=-90;fillColor=#004AAD;strokeColor=none;perimeterSpacing=0;rounded=1;arcSize=20;container=0;&quot; value=&quot;&quot; vertex=&quot;1&quot;&gt;&#10;          &lt;mxGeometry height=&quot;80&quot; width=&quot;90&quot; x=&quot;253&quot; y=&quot;79&quot; as=&quot;geometry&quot; /&gt;&#10;        &lt;/mxCell&gt;&#10;        &lt;mxCell id=&quot;7&quot; parent=&quot;2&quot; style=&quot;shape=hexagon;perimeter=hexagonPerimeter2;whiteSpace=wrap;html=1;fixedSize=1;rotation=-90;fillColor=#38B6FF;strokeColor=none;perimeterSpacing=0;rounded=1;arcSize=20;container=0;&quot; value=&quot;&quot; vertex=&quot;1&quot;&gt;&#10;          &lt;mxGeometry height=&quot;80&quot; width=&quot;90&quot; x=&quot;296&quot; y=&quot;153&quot; as=&quot;geometry&quot; /&gt;&#10;        &lt;/mxCell&gt;&#10;        &lt;mxCell id=&quot;8&quot; parent=&quot;2&quot; style=&quot;shape=hexagon;perimeter=hexagonPerimeter2;whiteSpace=wrap;html=1;fixedSize=1;rotation=-90;fillColor=#004AAD;strokeColor=none;perimeterSpacing=0;rounded=1;arcSize=20;container=0;&quot; value=&quot;&quot; vertex=&quot;1&quot;&gt;&#10;          &lt;mxGeometry height=&quot;80&quot; width=&quot;90&quot; x=&quot;210&quot; y=&quot;153&quot; as=&quot;geometry&quot; /&gt;&#10;        &lt;/mxCell&gt;&#10;        &lt;mxCell id=&quot;9&quot; parent=&quot;2&quot; style=&quot;shape=hexagon;perimeter=hexagonPerimeter2;whiteSpace=wrap;html=1;fixedSize=1;rotation=-90;fillColor=#38B6FF;strokeColor=none;perimeterSpacing=0;rounded=1;arcSize=20;container=0;&quot; value=&quot;&quot; vertex=&quot;1&quot;&gt;&#10;          &lt;mxGeometry height=&quot;80&quot; width=&quot;90&quot; x=&quot;210&quot; y=&quot;301&quot; as=&quot;geometry&quot; /&gt;&#10;        &lt;/mxCell&gt;&#10;        &lt;mxCell id=&quot;10&quot; parent=&quot;2&quot; style=&quot;shape=hexagon;perimeter=hexagonPerimeter2;whiteSpace=wrap;html=1;fixedSize=1;rotation=-90;fillColor=#38B6FF;strokeColor=none;perimeterSpacing=0;rounded=1;arcSize=20;container=0;&quot; value=&quot;&quot; vertex=&quot;1&quot;&gt;&#10;          &lt;mxGeometry height=&quot;80&quot; width=&quot;90&quot; x=&quot;253&quot; y=&quot;227&quot; as=&quot;geometry&quot; /&gt;&#10;        &lt;/mxCell&gt;&#10;        &lt;mxCell id=&quot;11&quot; parent=&quot;2&quot; style=&quot;shape=hexagon;perimeter=hexagonPerimeter2;whiteSpace=wrap;html=1;fixedSize=1;rotation=-90;fillColor=#004AAD;strokeColor=none;perimeterSpacing=0;rounded=1;arcSize=20;container=0;&quot; value=&quot;&quot; vertex=&quot;1&quot;&gt;&#10;          &lt;mxGeometry height=&quot;80&quot; width=&quot;90&quot; x=&quot;339&quot; y=&quot;227&quot; as=&quot;geometry&quot; /&gt;&#10;        &lt;/mxCell&gt;&#10;        &lt;mxCell id=&quot;12&quot; parent=&quot;2&quot; style=&quot;shape=hexagon;perimeter=hexagonPerimeter2;whiteSpace=wrap;html=1;fixedSize=1;rotation=-90;fillColor=#004AAD;strokeColor=none;perimeterSpacing=0;rounded=1;arcSize=20;container=0;&quot; value=&quot;&quot; vertex=&quot;1&quot;&gt;&#10;          &lt;mxGeometry height=&quot;80&quot; width=&quot;90&quot; x=&quot;382&quot; y=&quot;301&quot; as=&quot;geometry&quot; /&gt;&#10;        &lt;/mxCell&gt;&#10;        &lt;mxCell id=&quot;13&quot; parent=&quot;2&quot; style=&quot;shape=hexagon;perimeter=hexagonPerimeter2;whiteSpace=wrap;html=1;fixedSize=1;rotation=-90;fillColor=#004AAD;strokeColor=none;perimeterSpacing=0;rounded=1;arcSize=20;container=0;&quot; value=&quot;&quot; vertex=&quot;1&quot;&gt;&#10;          &lt;mxGeometry height=&quot;80&quot; width=&quot;90&quot; x=&quot;296&quot; y=&quot;301&quot; as=&quot;geometry&quot; /&gt;&#10;        &lt;/mxCell&gt;&#10;        &lt;mxCell id=&quot;14&quot; parent=&quot;2&quot; style=&quot;shape=hexagon;perimeter=hexagonPerimeter2;whiteSpace=wrap;html=1;fixedSize=1;rotation=-90;fillColor=#004AAD;strokeColor=none;perimeterSpacing=0;rounded=1;arcSize=20;container=0;&quot; value=&quot;&quot; vertex=&quot;1&quot;&gt;&#10;          &lt;mxGeometry height=&quot;80&quot; width=&quot;90&quot; x=&quot;38&quot; y=&quot;301&quot; as=&quot;geometry&quot; /&gt;&#10;        &lt;/mxCell&gt;&#10;        &lt;mxCell id=&quot;15&quot; parent=&quot;2&quot; style=&quot;shape=hexagon;perimeter=hexagonPerimeter2;whiteSpace=wrap;html=1;fixedSize=1;rotation=-90;fillColor=#004AAD;strokeColor=none;perimeterSpacing=0;rounded=1;arcSize=20;container=0;&quot; value=&quot;&quot; vertex=&quot;1&quot;&gt;&#10;          &lt;mxGeometry height=&quot;80&quot; width=&quot;90&quot; x=&quot;81&quot; y=&quot;227&quot; as=&quot;geometry&quot; /&gt;&#10;        &lt;/mxCell&gt;&#10;        &lt;mxCell id=&quot;16&quot; parent=&quot;2&quot; style=&quot;shape=hexagon;perimeter=hexagonPerimeter2;whiteSpace=wrap;html=1;fixedSize=1;rotation=-90;fillColor=#38B6FF;strokeColor=none;perimeterSpacing=0;rounded=1;arcSize=20;container=0;&quot; value=&quot;&quot; vertex=&quot;1&quot;&gt;&#10;          &lt;mxGeometry height=&quot;80&quot; width=&quot;90&quot; x=&quot;167&quot; y=&quot;227&quot; as=&quot;geometry&quot; /&gt;&#10;        &lt;/mxCell&gt;&#10;        &lt;mxCell id=&quot;17&quot; parent=&quot;2&quot; style=&quot;shape=hexagon;perimeter=hexagonPerimeter2;whiteSpace=wrap;html=1;fixedSize=1;rotation=-90;fillColor=#004AAD;strokeColor=none;perimeterSpacing=0;rounded=1;arcSize=20;container=0;&quot; value=&quot;&quot; vertex=&quot;1&quot;&gt;&#10;          &lt;mxGeometry height=&quot;80&quot; width=&quot;90&quot; x=&quot;124&quot; y=&quot;301&quot; as=&quot;geometry&quot; /&gt;&#10;        &lt;/mxCell&gt;&#10;        &lt;mxCell id=&quot;18&quot; parent=&quot;2&quot; style=&quot;shape=hexagon;perimeter=hexagonPerimeter2;whiteSpace=wrap;html=1;fixedSize=1;rotation=-90;fillColor=#004AAD;strokeColor=none;perimeterSpacing=0;rounded=1;arcSize=20;container=0;&quot; value=&quot;&quot; vertex=&quot;1&quot;&gt;&#10;          &lt;mxGeometry height=&quot;80&quot; width=&quot;90&quot; x=&quot;425&quot; y=&quot;375&quot; as=&quot;geometry&quot; /&gt;&#10;        &lt;/mxCell&gt;&#10;        &lt;mxCell id=&quot;19&quot; parent=&quot;2&quot; style=&quot;shape=hexagon;perimeter=hexagonPerimeter2;whiteSpace=wrap;html=1;fixedSize=1;rotation=-90;fillColor=#004AAD;strokeColor=none;perimeterSpacing=0;rounded=1;arcSize=20;container=0;&quot; value=&quot;&quot; vertex=&quot;1&quot;&gt;&#10;          &lt;mxGeometry height=&quot;80&quot; width=&quot;90&quot; x=&quot;339&quot; y=&quot;375&quot; as=&quot;geometry&quot; /&gt;&#10;        &lt;/mxCell&gt;&#10;        &lt;mxCell id=&quot;20&quot; parent=&quot;2&quot; style=&quot;shape=hexagon;perimeter=hexagonPerimeter2;whiteSpace=wrap;html=1;fixedSize=1;rotation=-90;fillColor=#004AAD;strokeColor=none;perimeterSpacing=0;rounded=1;arcSize=20;container=0;&quot; value=&quot;&quot; vertex=&quot;1&quot;&gt;&#10;          &lt;mxGeometry height=&quot;80&quot; width=&quot;90&quot; x=&quot;81&quot; y=&quot;375&quot; as=&quot;geometry&quot; /&gt;&#10;        &lt;/mxCell&gt;&#10;        &lt;mxCell id=&quot;21&quot; parent=&quot;2&quot; style=&quot;shape=hexagon;perimeter=hexagonPerimeter2;whiteSpace=wrap;html=1;fixedSize=1;rotation=-90;fillColor=#004AAD;strokeColor=none;perimeterSpacing=0;rounded=1;arcSize=20;container=0;&quot; value=&quot;&quot; vertex=&quot;1&quot;&gt;&#10;          &lt;mxGeometry height=&quot;80&quot; width=&quot;90&quot; x=&quot;253&quot; y=&quot;375&quot; as=&quot;geometry&quot; /&gt;&#10;        &lt;/mxCell&gt;&#10;        &lt;mxCell id=&quot;22&quot; parent=&quot;2&quot; style=&quot;shape=hexagon;perimeter=hexagonPerimeter2;whiteSpace=wrap;html=1;fixedSize=1;rotation=-90;fillColor=#38B6FF;strokeColor=none;perimeterSpacing=0;rounded=1;arcSize=20;container=0;&quot; value=&quot;&quot; vertex=&quot;1&quot;&gt;&#10;          &lt;mxGeometry height=&quot;80&quot; width=&quot;90&quot; x=&quot;167&quot; y=&quot;375&quot; as=&quot;geometry&quot; /&gt;&#10;        &lt;/mxCell&gt;&#10;        &lt;mxCell id=&quot;23&quot; parent=&quot;2&quot; style=&quot;shape=hexagon;perimeter=hexagonPerimeter2;whiteSpace=wrap;html=1;fixedSize=1;rotation=-90;fillColor=#004AAD;strokeColor=none;perimeterSpacing=0;rounded=1;arcSize=20;container=0;&quot; value=&quot;&quot; vertex=&quot;1&quot;&gt;&#10;          &lt;mxGeometry height=&quot;80&quot; width=&quot;90&quot; x=&quot;-5&quot; y=&quot;375&quot; as=&quot;geometry&quot; /&gt;&#10;        &lt;/mxCell&gt;&#10;      &lt;/root&gt;&#10;    &lt;/mxGraphModel&gt;&#10;  &lt;/diagram&gt;&#10;&lt;/mxfile&gt;&#10;"><defs/><g><g data-cell-id="0"><g data-cell-id="1"><g data-cell-id="CGUVQfB1O0rcnaiE98_N-1"><g data-cell-id="NHlKBs0vUav1fOVP5WcO-20"/><g data-cell-id="NHlKBs0vUav1fOVP5WcO-5"/><g data-cell-id="NHlKBs0vUav1fOVP5WcO-13"/><g data-cell-id="NHlKBs0vUav1fOVP5WcO-12"/><g data-cell-id="NHlKBs0vUav1fOVP5WcO-16"/><g data-cell-id="NHlKBs0vUav1fOVP5WcO-17"/><g data-cell-id="NHlKBs0vUav1fOVP5WcO-35"/><g data-cell-id="NHlKBs0vUav1fOVP5WcO-37"/><g data-cell-id="NHlKBs0vUav1fOVP5WcO-38"/><g data-cell-id="NHlKBs0vUav1fOVP5WcO-39"/><g data-cell-id="NHlKBs0vUav1fOVP5WcO-40"/><g data-cell-id="NHlKBs0vUav1fOVP5WcO-64"/><g data-cell-id="NHlKBs0vUav1fOVP5WcO-66"/><g data-cell-id="NHlKBs0vUav1fOVP5WcO-67"/><g data-cell-id="NHlKBs0vUav1fOVP5WcO-69"/><g data-cell-id="NHlKBs0vUav1fOVP5WcO-75"/><g data-cell-id="NHlKBs0vUav1fOVP5WcO-76"/><g data-cell-id="NHlKBs0vUav1fOVP5WcO-77"/><g data-cell-id="NHlKBs0vUav1fOVP5WcO-80"/><g data-cell-id="NHlKBs0vUav1fOVP5WcO-81"/><g data-cell-id="NHlKBs0vUav1fOVP5WcO-83"/></g><g data-cell-id="CGUVQfB1O0rcnaiE98_N-2"><g transform="translate(0.5,0.5)"/><g data-cell-id="CGUVQfB1O0rcnaiE98_N-3"><g transform="translate(0.5,0.5)"><path d="M 134 173 L 139.53 161.94 Q 144 153 154 153 L 184 153 Q 194 153 198.47 161.94 L 209.53 184.06 Q 214 193 209.53 201.94 L 198.47 224.06 Q 194 233 184 233 L 154 233 Q 144 233 139.53 224.06 L 128.47 201.94 Q 124 193 128.47 184.06 Z" fill="#38b6ff" stroke="none" transform="rotate(-90,169,193)" pointer-events="all" style="fill: light-dark(rgb(56, 182, 255), rgb(10, 118, 181));"/></g></g><g data-cell-id="CGUVQfB1O0rcnaiE98_N-4"><g transform="translate(0.5,0.5)"><path d="M 220 25 L 225.53 13.94 Q 230 5 240 5 L 270 5 Q 280 5 284.47 13.94 L 295.53 36.06 Q 300 45 295.53 53.94 L 284.47 76.06 Q 280 85 270 85 L 240 85 Q 230 85 225.53 76.06 L 214.47 53.94 Q 210 45 214.47 36.06 Z" fill="#004aad" stroke="none" transform="rotate(-90,255,45)" pointer-events="all" style="fill: light-dark(rgb(0, 74, 173), rgb(125, 188, 255));"/></g></g><g data-cell-id="CGUVQfB1O0rcnaiE98_N-5"><g transform="translate(0.5,0.5)"><path d="M 177 99 L 182.53 87.94 Q 187 79 197 79 L 227 79 Q 237 79 241.47 87.94 L 252.53 110.06 Q 257 119 252.53 127.94 L 241.47 150.06 Q 237 159 227 159 L 197 159 Q 187 159 182.53 150.06 L 171.47 127.94 Q 167 119 171.47 110.06 Z" fill="#004aad" stroke="none" transform="rotate(-90,212,119)" pointer-events="all" style="fill: light-dark(rgb(0, 74, 173), rgb(125, 188, 255));"/></g></g><g data-cell-id="CGUVQfB1O0rcnaiE98_N-6"><g transform="translate(0.5,0.5)"><path d="M 263 99 L 268.53 87.94 Q 273 79 283 79 L 313 79 Q 323 79 327.47 87.94 L 338.53 110.06 Q 343 119 338.53 127.94 L 327.47 150.06 Q 323 159 313 159 L 283 159 Q 273 159 268.53 150.06 L 257.47 127.94 Q 253 119 257.47 110.06 Z" fill="#004aad" stroke="none" transform="rotate(-90,298,119)" pointer-events="all" style="fill: light-dark(rgb(0, 74, 173), rgb(125, 188, 255));"/></g></g><g data-cell-id="CGUVQfB1O0rcnaiE98_N-7"><g transform="translate(0.5,0.5)"><path d="M 306 173 L 311.53 161.94 Q 316 153 326 153 L 356 153 Q 366 153 370.47 161.94 L 381.53 184.06 Q 386 193 381.53 201.94 L 370.47 224.06 Q 366 233 356 233 L 326 233 Q 316 233 311.53 224.06 L 300.47 201.94 Q 296 193 300.47 184.06 Z" fill="#38b6ff" stroke="none" transform="rotate(-90,341,193)" pointer-events="all" style="fill: light-dark(rgb(56, 182, 255), rgb(10, 118, 181));"/></g></g><g data-cell-id="CGUVQfB1O0rcnaiE98_N-8"><g transform="translate(0.5,0.5)"><path d="M 220 173 L 225.53 161.94 Q 230 153 240 153 L 270 153 Q 280 153 284.47 161.94 L 295.53 184.06 Q 300 193 295.53 201.94 L 284.47 224.06 Q 280 233 270 233 L 240 233 Q 230 233 225.53 224.06 L 214.47 201.94 Q 210 193 214.47 184.06 Z" fill="#004aad" stroke="none" transform="rotate(-90,255,193)" pointer-events="all" style="fill: light-dark(rgb(0, 74, 173), rgb(125, 188, 255));"/></g></g><g data-cell-id="CGUVQfB1O0rcnaiE98_N-9"><g transform="translate(0.5,0.5)"><path d="M 220 321 L 225.53 309.94 Q 230 301 240 301 L 270 301 Q 280 301 284.47 309.94 L 295.53 332.06 Q 300 341 295.53 349.94 L 284.47 372.06 Q 280 381 270 381 L 240 381 Q 230 381 225.53 372.06 L 214.47 349.94 Q 210 341 214.47 332.06 Z" fill="#38b6ff" stroke="none" transform="rotate(-90,255,341)" pointer-events="all" style="fill: light-dark(rgb(56, 182, 255), rgb(10, 118, 181));"/></g></g><g data-cell-id="CGUVQfB1O0rcnaiE98_N-10"><g transform="translate(0.5,0.5)"><path d="M 263 247 L 268.53 235.94 Q 273 227 283 227 L 313 227 Q 323 227 327.47 235.94 L 338.53 258.06 Q 343 267 338.53 275.94 L 327.47 298.06 Q 323 307 313 307 L 283 307 Q 273 307 268.53 298.06 L 257.47 275.94 Q 253 267 257.47 258.06 Z" fill="#38b6ff" stroke="none" transform="rotate(-90,298,267)" pointer-events="all" style="fill: light-dark(rgb(56, 182, 255), rgb(10, 118, 181));"/></g></g><g data-cell-id="CGUVQfB1O0rcnaiE98_N-11"><g transform="translate(0.5,0.5)"><path d="M 349 247 L 354.53 235.94 Q 359 227 369 227 L 399 227 Q 409 227 413.47 235.94 L 424.53 258.06 Q 429 267 424.53 275.94 L 413.47 298.06 Q 409 307 399 307 L 369 307 Q 359 307 354.53 298.06 L 343.47 275.94 Q 339 267 343.47 258.06 Z" fill="#004aad" stroke="none" transform="rotate(-90,384,267)" pointer-events="all" style="fill: light-dark(rgb(0, 74, 173), rgb(125, 188, 255));"/></g></g><g data-cell-id="CGUVQfB1O0rcnaiE98_N-12"><g transform="translate(0.5,0.5)"><path d="M 392 321 L 397.53 309.94 Q 402 301 412 301 L 442 301 Q 452 301 456.47 309.94 L 467.53 332.06 Q 472 341 467.53 349.94 L 456.47 372.06 Q 452 381 442 381 L 412 381 Q 402 381 397.53 372.06 L 386.47 349.94 Q 382 341 386.47 332.06 Z" fill="#004aad" stroke="none" transform="rotate(-90,427,341)" pointer-events="all" style="fill: light-dark(rgb(0, 74, 173), rgb(125, 188, 255));"/></g></g><g data-cell-id="CGUVQfB1O0rcnaiE98_N-13"><g transform="translate(0.5,0.5)"><path d="M 306 321 L 311.53 309.94 Q 316 301 326 301 L 356 301 Q 366 301 370.47 309.94 L 381.53 332.06 Q 386 341 381.53 349.94 L 370.47 372.06 Q 366 381 356 381 L 326 381 Q 316 381 311.53 372.06 L 300.47 349.94 Q 296 341 300.47 332.06 Z" fill="#004aad" stroke="none" transform="rotate(-90,341,341)" pointer-events="all" style="fill: light-dark(rgb(0, 74, 173), rgb(125, 188, 255));"/></g></g><g data-cell-id="CGUVQfB1O0rcnaiE98_N-14"><g transform="translate(0.5,0.5)"><path d="M 48 321 L 53.53 309.94 Q 58 301 68 301 L 98 301 Q 108 301 112.47 309.94 L 123.53 332.06 Q 128 341 123.53 349.94 L 112.47 372.06 Q 108 381 98 381 L 68 381 Q 58 381 53.53 372.06 L 42.47 349.94 Q 38 341 42.47 332.06 Z" fill="#004aad" stroke="none" transform="rotate(-90,83,341)" pointer-events="all" style="fill: light-dark(rgb(0, 74, 173), rgb(125, 188, 255));"/></g></g><g data-cell-id="CGUVQfB1O0rcnaiE98_N-15"><g transform="translate(0.5,0.5)"><path d="M 91 247 L 96.53 235.94 Q 101 227 111 227 L 141 227 Q 151 227 155.47 235.94 L 166.53 258.06 Q 171 267 166.53 275.94 L 155.47 298.06 Q 151 307 141 307 L 111 307 Q 101 307 96.53 298.06 L 85.47 275.94 Q 81 267 85.47 258.06 Z" fill="#004aad" stroke="none" transform="rotate(-90,126,267)" pointer-events="all" style="fill: light-dark(rgb(0, 74, 173), rgb(125, 188, 255));"/></g></g><g data-cell-id="CGUVQfB1O0rcnaiE98_N-16"><g transform="translate(0.5,0.5)"><path d="M 177 247 L 182.53 235.94 Q 187 227 197 227 L 227 227 Q 237 227 241.47 235.94 L 252.53 258.06 Q 257 267 252.53 275.94 L 241.47 298.06 Q 237 307 227 307 L 197 307 Q 187 307 182.53 298.06 L 171.47 275.94 Q 167 267 171.47 258.06 Z" fill="#38b6ff" stroke="none" transform="rotate(-90,212,267)" pointer-events="all" style="fill: light-dark(rgb(56, 182, 255), rgb(10, 118, 181));"/></g></g><g data-cell-id="CGUVQfB1O0rcnaiE98_N-17"><g transform="translate(0.5,0.5)"><path d="M 134 321 L 139.53 309.94 Q 144 301 154 301 L 184 301 Q 194 301 198.47 309.94 L 209.53 332.06 Q 214 341 209.53 349.94 L 198.47 372.06 Q 194 381 184 381 L 154 381 Q 144 381 139.53 372.06 L 128.47 349.94 Q 124 341 128.47 332.06 Z" fill="#004aad" stroke="none" transform="rotate(-90,169,341)" pointer-events="all" style="fill: light-dark(rgb(0, 74, 173), rgb(125, 188, 255));"/></g></g><g data-cell-id="CGUVQfB1O0rcnaiE98_N-18"><g transform="translate(0.5,0.5)"><path d="M 435 395 L 440.53 383.94 Q 445 375 455 375 L 485 375 Q 495 375 499.47 383.94 L 510.53 406.06 Q 515 415 510.53 423.94 L 499.47 446.06 Q 495 455 485 455 L 455 455 Q 445 455 440.53 446.06 L 429.47 423.94 Q 425 415 429.47 406.06 Z" fill="#004aad" stroke="none" transform="rotate(-90,470,415)" pointer-events="all" style="fill: light-dark(rgb(0, 74, 173), rgb(125, 188, 255));"/></g></g><g data-cell-id="CGUVQfB1O0rcnaiE98_N-19"><g transform="translate(0.5,0.5)"><path d="M 349 395 L 354.53 383.94 Q 359 375 369 375 L 399 375 Q 409 375 413.47 383.94 L 424.53 406.06 Q 429 415 424.53 423.94 L 413.47 446.06 Q 409 455 399 455 L 369 455 Q 359 455 354.53 446.06 L 343.47 423.94 Q 339 415 343.47 406.06 Z" fill="#004aad" stroke="none" transform="rotate(-90,384,415)" pointer-events="all" style="fill: light-dark(rgb(0, 74, 173), rgb(125, 188, 255));"/></g></g><g data-cell-id="CGUVQfB1O0rcnaiE98_N-20"><g transform="translate(0.5,0.5)"><path d="M 91 395 L 96.53 383.94 Q 101 375 111 375 L 141 375 Q 151 375 155.47 383.94 L 166.53 406.06 Q 171 415 166.53 423.94 L 155.47 446.06 Q 151 455 141 455 L 111 455 Q 101 455 96.53 446.06 L 85.47 423.94 Q 81 415 85.47 406.06 Z" fill="#004aad" stroke="none" transform="rotate(-90,126,415)" pointer-events="all" style="fill: light-dark(rgb(0, 74, 173), rgb(125, 188, 255));"/></g></g><g data-cell-id="CGUVQfB1O0rcnaiE98_N-21"><g transform="translate(0.5,0.5)"><path d="M 263 395 L 268.53 383.94 Q 273 375 283 375 L 313 375 Q 323 375 327.47 383.94 L 338.53 406.06 Q 343 415 338.53 423.94 L 327.47 446.06 Q 323 455 313 455 L 283 455 Q 273 455 268.53 446.06 L 257.47 423.94 Q 253 415 257.47 406.06 Z" fill="#004aad" stroke="none" transform="rotate(-90,298,415)" pointer-events="all" style="fill: light-dark(rgb(0, 74, 173), rgb(125, 188, 255));"/></g></g><g data-cell-id="CGUVQfB1O0rcnaiE98_N-22"><g transform="translate(0.5,0.5)"><path d="M 177 395 L 182.53 383.94 Q 187 375 197 375 L 227 375 Q 237 375 241.47 383.94 L 252.53 406.06 Q 257 415 252.53 423.94 L 241.47 446.06 Q 237 455 227 455 L 197 455 Q 187 455 182.53 446.06 L 171.47 423.94 Q 167 415 171.47 406.06 Z" fill="#38b6ff" stroke="none" transform="rotate(-90,212,415)" pointer-events="all" style="fill: light-dark(rgb(56, 182, 255), rgb(10, 118, 181));"/></g></g><g data-cell-id="CGUVQfB1O0rcnaiE98_N-23"><g transform="translate(0.5,0.5)"><path d="M 5 395 L 10.53 383.94 Q 15 375 25 375 L 55 375 Q 65 375 69.47 383.94 L 80.53 406.06 Q 85 415 80.53 423.94 L 69.47 446.06 Q 65 455 55 455 L 25 455 Q 15 455 10.53 446.06 L -0.53 423.94 Q -5 415 -0.53 406.06 Z" fill="#004aad" stroke="none" transform="rotate(-90,40,415)" pointer-events="all" style="fill: light-dark(rgb(0, 74, 173), rgb(125, 188, 255));"/></g></g></g></g></g></g></svg>